<?xml version="1.0" encoding="UTF-8"?>
<svg id="Layer_2" data-name="Layer 2" xmlns="http://www.w3.org/2000/svg" viewBox="0 0 731.46 897.96">
  <defs>
    <style>
      .cls-1 {
        fill: #ffe7f1;
      }
    </style>
  </defs>
  <g id="Layer_111" data-name="Layer 111">
    <path class="cls-1" d="M578.84,843.77c0-15.51-10.77-53.81-23.26-98.21-10.27-36.52-20.89-74.28-23.35-93.4-.4-3.12-.6-7.08-.6-11.77,0-41.55,15.63-128.46,21.81-161.21,2.49.47,4.92.9,7.26,1.28-.14,11.17-3.05,27.54-7.4,52.01-2.59,14.56-5.81,32.68-9.22,54.27-1.11,7.03-1.68,14.59-1.68,22.45,0,74.79,51.44,171.15,72.89,198.73,2.97,3.82,6.01,7.93,9.23,12.29,19.22,26,43.14,58.36,75.95,58.36,18.54,0,31-16.12,31-40.12,0-7.96-1.35-16.22-3.91-23.89-3.65-10.97-14.54-35.78-26.06-62.05-14.28-32.55-30.47-69.45-35.24-85.35-4.54-15.14-5.16-27.69-5.16-37.97,0-1.85.02-3.6.04-5.26v-.12c.02-1.48.03-2.89.03-4.21,0-4.52-.17-8.18-1.02-11.4-2.44-9.21-26.24-74.93-33.48-94.86-.64-1.76-2.09-5.73-25.15-33.11,12.02-3.14,23.96-8.71,32.41-13.18.59,1.41,1.25,2.76,1.98,4.02,4.25,7.4,10.62,11.64,17.47,11.64,5.83,0,11.33-3.05,15.47-8.6,4.7-6.3,7.4-15.46,7.4-25.14s-2.7-18.86-7.4-25.12c-4.13-5.55-9.62-8.61-15.47-8.61-6.85,0-13.21,4.24-17.46,11.63-.73,1.26-1.39,2.61-1.99,4.02-8.45-4.47-20.39-10.04-32.42-13.17,23.08-27.39,24.46-31.21,25.15-33.11.31-.84,30.75-84.59,33.48-94.86.85-3.21,1.02-6.88,1.02-11.4,0-1.33-.02-2.73-.03-4.21v-.12c-.02-1.66-.04-3.41-.04-5.26,0-10.28.61-22.83,5.16-37.98,4.77-15.89,20.95-52.76,35.23-85.31,11.53-26.29,22.43-51.11,26.08-62.09,2.56-7.67,3.91-15.94,3.91-23.9,0-24-12.46-40.12-31-40.12-32.81,0-56.73,32.37-75.96,58.38-3.22,4.36-6.26,8.48-9.22,12.28-21.45,27.57-72.89,123.92-72.89,198.73,0,7.87.56,15.42,1.68,22.45,3.4,21.46,6.61,39.55,9.21,54.16,4.36,24.53,7.27,40.94,7.41,52.12-2.35.38-4.77.81-7.26,1.28-6.18-32.74-21.81-119.64-21.81-161.22,0-4.69.2-8.65.6-11.77,2.46-19.13,13.09-56.91,23.37-93.46,12.47-44.35,23.25-82.65,23.25-98.16s0-54.19-29.44-54.19c-15.84,0-54.95,43.03-80.16,81.65-28.39,43.5-62.22,112.35-62.22,193.34,0,64.82,26.85,94.95,32.23,100.33,2.27,2.27,9.97,7.58,29.78,21.08,14.98,10.21,32.95,22.46,45.88,31.95-5.28,1.73-6.41,2.52-6.94,2.88-.45.31-.87.66-1.26,1.05-48.68,5.18-127.12,4.89-179.3,4.7-8.62-.03-16.47-.06-23.25-.06-29.9,0-99.43-3.28-155.39-5.91h-.21c-37.3-1.77-66.76-3.16-75.46-3.16-24.17,0-41.46,1.31-52.88,4.02-5.01,1.19-20.24,4.79-20.24,17.11,0,3.04,1.07,7.45,6.14,11.19,3.33,2.46,8.02,4.38,14.34,5.87,11.57,2.74,28.79,4.08,52.64,4.08,8.69,0,38.18-1.39,75.5-3.15h.16c55.89-2.64,125.46-5.92,155.39-5.92,6.79,0,14.63-.03,23.29-.06,52.16-.19,130.6-.49,179.28,4.7.37.37.77.71,1.19,1.01.57.41,1.69,1.19,6.99,2.92-12.95,9.51-30.97,21.79-45.98,32.01-19.74,13.45-27.42,18.75-29.69,21.02-5.38,5.38-32.23,35.52-32.23,100.33,0,80.99,33.84,149.85,62.22,193.34,25.2,38.62,64.32,81.65,80.16,81.65,29.44,0,29.44-39.37,29.44-54.19ZM522.94,867.79c-15.24-15.28-31.33-35.5-45.32-56.94-27.65-42.36-60.6-109.34-60.6-187.88,0-60.87,24.41-88.37,29.3-93.26,1.82-1.81,14.65-10.56,28.25-19.82,20.29-13.82,45.53-31.03,57.5-40.84l4.54-3.72-5.68-1.5c-9.67-2.55-15.76-4.59-17.16-5.27-.06-.1-.16-.28-.28-.58l-.66-1.67-1.78-.2c-48.98-5.62-130.03-5.31-183.66-5.11-8.61.03-16.45.06-23.22.06-30.16,0-99.85,3.29-155.86,5.92-35.8,1.69-66.72,3.15-75.19,3.15-58.57,0-63.12-8.53-63.12-11.14s4.55-11.13,63.12-11.13c8.47,0,39.39,1.46,75.19,3.14,56,2.64,125.7,5.92,155.86,5.92,6.77,0,14.6.03,23.21.06,53.63.2,134.68.5,183.66-5.11l1.76-.2.67-1.64c.14-.34.24-.53.3-.63,1.07-.52,6.54-2.47,17.15-5.26l5.69-1.49-4.55-3.73c-11.96-9.8-37.17-26.98-57.42-40.79-13.63-9.29-26.5-18.06-28.33-19.88-4.89-4.89-29.3-32.39-29.3-93.26,0-78.53,32.95-145.51,60.6-187.87,13.99-21.44,30.09-41.66,45.32-56.94,14.76-14.8,23.91-20.17,26.46-20.17,13.44,0,19.44,13.63,19.44,44.19,0,14.13-11.63,55.48-22.88,95.46-10.37,36.88-21.1,75.02-23.66,94.88-.45,3.54-.68,7.93-.68,13.04,0,45.4,17.84,141.63,23.31,170.04l.58,3,2.99-.63c6.98-1.48,13.5-2.63,19.37-3.43l2.36-.32.23-2.37c.16-1.7.24-3.56.24-5.53,0-12.08-3.01-29.04-7.57-54.7-2.58-14.51-5.79-32.58-9.18-53.96-1.03-6.51-1.56-13.54-1.56-20.89,0-77.27,55.17-172.52,70.78-192.59,3.03-3.9,6.11-8.06,9.37-12.47,17.88-24.2,40.14-54.33,67.91-54.33,15.48,0,21,15.56,21,30.12,0,6.9-1.17,14.07-3.4,20.73-3.51,10.54-14.31,35.17-25.75,61.24-14.39,32.8-30.7,69.98-35.65,86.45-4.92,16.38-5.58,29.84-5.58,40.85,0,1.89.02,3.68.04,5.37.02,1.49.03,2.9.03,4.22,0,3.23-.08,6.54-.69,8.84-2.6,9.79-32.9,93.15-33.21,93.99-.53,1.45-4.63,8.19-31.22,39.3l-3.79,4.43,5.81.5c18.17,1.57,40.03,13.41,48.58,18.43l3.71,2.18.76-4.24c.67-3.73,1.86-7.16,3.46-9.92,2.42-4.21,5.63-6.63,8.8-6.63,3.34,0,5.89,2.49,7.44,4.58,3.4,4.53,5.43,11.69,5.43,19.15s-1.97,14.55-5.41,19.15c-1.56,2.09-4.12,4.59-7.46,4.59s-6.38-2.42-8.8-6.62c-1.6-2.77-2.79-6.2-3.46-9.93l-.76-4.24-3.71,2.18c-8.56,5.02-30.43,16.87-48.58,18.44l-5.82.5,3.8,4.44c27.32,31.93,30.8,38.14,31.22,39.29,14.16,38.98,31.35,86.99,33.21,94,.61,2.29.69,5.6.69,8.84,0,1.33-.02,2.73-.03,4.22-.02,1.69-.04,3.48-.04,5.37,0,11,.66,24.46,5.58,40.84,4.94,16.48,21.26,53.68,35.66,86.49,11.43,26.05,22.23,50.66,25.73,61.19,2.22,6.67,3.4,13.84,3.4,20.73,0,14.56-5.52,30.12-21,30.12-27.77,0-50.02-30.11-67.9-54.31-3.26-4.42-6.35-8.58-9.38-12.48-15.61-20.07-70.78-115.34-70.78-192.59h0c0-7.35.52-14.38,1.56-20.89,3.39-21.45,6.61-39.54,9.19-54.08,4.55-25.61,7.55-42.52,7.55-54.59,0-2-.08-3.8-.24-5.52l-.23-2.37-2.36-.32c-5.86-.79-12.37-1.95-19.37-3.43l-2.99-.63-.58,3c-5.47,28.42-23.31,124.67-23.31,170.04,0,5.12.23,9.5.68,13.04,2.55,19.85,13.28,57.98,23.65,94.86,11.25,39.99,22.88,81.34,22.88,95.47,0,30.56-6,44.19-19.44,44.19-2.55,0-11.7-5.37-26.46-20.17Z"/>
  </g>
</svg>